<svg id="Слой_1" data-name="Слой 1" xmlns="http://www.w3.org/2000/svg" viewBox="0 0 512 512"><defs><style>.cls-1{fill:#00b2c4;}</style></defs><title>Монтажная область 2</title><path class="cls-1" d="M432.3,303.09c.62,21.57-1.74,41.93-4.31,62.24-.95,7.5-3,14.86-4.57,22.28-2.43,11.51-11.22,17.9-21.79,15.86-11-2.13-17-11.31-14.44-23.07a392.58,392.58,0,0,0,6.12-39.06,312.66,312.66,0,0,0,2.29-43c-.73-29.34-4.42-58.26-15-85.88-15.59-40.65-43.24-68.62-86-80.06-9.21-2.46-18.61-4.65-28.3-4.53a33.54,33.54,0,0,1-11.6-2.37c-6.65-2.36-11.09-9-11.32-16.58a18.14,18.14,0,0,1,10.74-17,22.73,22.73,0,0,1,14.44-1.3c8,1.73,16.32,1.85,24.46,3.44q75.31,14.76,111.73,82.09c10.06,18.58,16.43,38.49,20.94,59.06a254.88,254.88,0,0,1,5.32,34.2C431.91,281,433.17,292.53,432.3,303.09Z"/><path class="cls-1" d="M269,298.12a245.27,245.27,0,0,1-25.84,59.27c-18.48,30.3-43.51,53.78-74.12,71.4-15,8.64-30.35,16.79-46.85,22.32-7.61,2.55-16.82-2.08-20.49-9.81s-1.12-17.69,5.36-22.29c6.8-4.82,14.64-7.59,22.07-11.14,29-13.85,54.91-31.61,74.12-58a199.53,199.53,0,0,0,29-58.23c1.77-5.62,3-11.6,7.91-15.69,1-.84,5.06-3.76,6.64-4,7.94-1,9.92-2,16.87,4C272.26,283.3,270.29,293.87,269,298.12Z"/><path class="cls-1" d="M480.41,252.64c.85,5.63-2.64,11.68-10.13,15.85-11.17,6.22-25.23-2.24-26.66-15.21a241.59,241.59,0,0,0-37.17-105.43A131.24,131.24,0,0,0,375,113.9c-12-9.07-9.28-26.64,4.56-32.14,6.93-2.75,13.26-.91,19.09,3.35,15.95,11.66,28.41,26.51,39.23,42.86a260.13,260.13,0,0,1,31.35,67C474.74,212.81,479.25,230.93,480.41,252.64Z"/><path class="cls-1" d="M318.19,322.24a224,224,0,0,1-6.7,32,210.61,210.61,0,0,1-31.61,66.24,189.38,189.38,0,0,1-62.14,55.76c-3.63,2-5.83,2.52-7.61-2.46-2.83-7.91-6.46-15.54-10.05-23.15-2-4.31-1-6.76,3-9.19,35.56-21.2,58.1-52.53,70.86-91.47a203.25,203.25,0,0,0,7.53-32.24c1.84-11.88,9-17.84,21.2-16.9C312.22,301.54,318.41,309.32,318.19,322.24Z"/><path class="cls-1" d="M339.14,313.32c.31-12.39.64-24.82-1.05-37.13-3.32-24.18-8.23-47.86-22.94-68.24a78.8,78.8,0,0,0-8.37-9.11c-7.85-7.91-8.26-18.94-1.14-26.68,5.8-6.31,18.54-7.94,26.87-.15,12.05,11.26,20.85,24.7,27.23,39.78,6.66,15.73,10.72,32.15,13.35,49.05,4,25.61,4,51.28,2.65,77-.53,9.75-5.83,15.89-15,17.77a18.21,18.21,0,0,1-20.26-9.81c-1.45-2.81-1.35-5.75-1.37-8.7C339.1,329.19,339.14,321.25,339.14,313.32Z"/><path class="cls-1" d="M249.58,32.78c34.83,1.09,64.77,6.06,93.32,18,10.47,4.36,15.51,11.6,14.57,20.46-1.42,13.48-14.59,20.21-28,14.39a173.33,173.33,0,0,0-32.93-10.52c-23.47-5-47.15-5.4-70.88-2.46-7.84,1-15.41,3.48-23.08,5.44-10.27,2.62-18.18-.22-22.64-7.51-5.6-9.14-1.74-22.37,8.15-26.42C201,38.83,214.69,36.43,228.5,35,236.85,34.06,245.15,32.2,249.58,32.78Z"/><path class="cls-1" d="M65.77,327.47c-3.64-.23-8.07.58-12.34-1.66-8.22-4.3-12-11.91-10-21,1.88-8.54,8.2-13.67,17.46-14,30-.91,52.76-14.88,69.88-39a145.74,145.74,0,0,0,18.28-35.55c3.33-9.27,14-13.8,23.77-10.47,9.11,3.11,14.35,14.19,10.71,24.18-13.07,35.87-33.85,65.64-68.17,84.35C102.82,321.26,82.46,327.59,65.77,327.47Z"/><path class="cls-1" d="M73.59,394.1c-7.56.55-14.74-1.29-19.05-9.26-6.33-11.67,1.53-27,14.58-27.23,19-.4,35.76-7.43,51.85-16.42,19.23-10.74,35.85-24.56,49.06-42.45,8.13-11,24.52-10.57,30.94.64a18.57,18.57,0,0,1-.49,20.24C191.7,333,180.39,344.15,168,354.09c-19.1,15.31-40.13,27.23-63.58,34.6C94.61,391.77,84.68,394.14,73.59,394.1Z"/><path class="cls-1" d="M253.38,204.61c27,.85,46.4,15.2,59,39.72,3,5.84,6,11.75,5.87,18.67-.12,7.66-4.13,13-10.53,16.1-6.67,3.19-13.53,2.29-19.57-2.45-2.52-2-4.09-4.76-5.59-7.6-9.92-18.85-13.84-21.74-18.46-24.18-12.45-6.57-25-3-32.82,8.79-3.46,5.21-6.23,10.87-9.45,16.25-5.73,9.54-15.5,12.53-25,7.8-7.82-3.89-12.29-13.85-8.7-22.38,6.32-15,14.49-29,27.86-39C226.66,208.23,238.91,204.93,253.38,204.61Z"/><path class="cls-1" d="M233,114.38c0,9-3.93,14.5-12.4,17.61-31.9,11.7-56,33-75.13,60.61-3.37,4.87-7,9.15-13.24,10.37-7.77,1.51-14.11-.73-18.83-7s-5.14-13.1-1.34-19.56c10.06-17.07,23.1-31.76,37.88-44.87a188.14,188.14,0,0,1,38.85-26.35,121.17,121.17,0,0,1,23-9.09C222.14,93.22,233,102.81,233,114.38Z"/><path class="cls-1" d="M58.3,166c-.28-3.63,1.37-7.18,3.43-10.65C68.67,143.7,76,132.22,85.12,122.23,89.85,117,94,111.39,98.79,106.36c5.36-5.6,11.13-10.83,16.86-16.06s12.19-9.61,18.27-14.43c9.07-7.2,22.09-4.93,27,1.16,7.3,9,6.33,21-3.36,27.72-22.05,15.23-40,34.36-55.2,56.28-3.48,5-6.69,10.22-10,15.36-4.94,7.71-12.93,10.64-22,8C62.95,182.22,58.2,175.24,58.3,166Z"/><path class="cls-1" d="M259.65,184.46c-15.36-1.38-30,4.52-43.32,14.79-8.73,6.74-20.22,5.3-26.46-3s-4.35-20,4.3-26.82c23.78-18.78,50.84-25.09,80.56-21.4,9.09,1.13,15.07,8.81,14.77,18.67-.27,9.07-7.51,17.09-16.22,17.67C269.33,184.67,265.34,184.46,259.65,184.46Z"/><path class="cls-1" d="M365.92,397.27c-.91,8-4.57,17.13-8.77,26.1-9.87,21.07-24.08,38.53-43.34,51.8-3,2.07-5,1.95-6.77-1.33-4.42-8.31-8.83-16.62-13.37-24.86-1.45-2.63-1.23-4.26,1.37-6.17,17.91-13.11,28.83-31,34.72-52.13,2.82-10.12,11.15-15.05,22.23-13.32C360.2,378.64,365.94,386,365.92,397.27Z"/><path class="cls-1" d="M98.29,214.53c14,0,22.92,11.71,18.47,24.1-5.91,16.49-19,25.09-35,30-5.38,1.64-10.56,3-16.26.21-6.54-3.23-11.79-10.06-11.74-16.93.05-7.13,5.18-15.18,12.18-17.12,8.32-2.3,15-6,19.53-13.74A13.09,13.09,0,0,1,98.29,214.53Z"/></svg>